<svg width="228" height="27" viewBox="0 0 228 27" fill="none" xmlns="http://www.w3.org/2000/svg">
<path d="M9.17383 14.5918C6.2793 13.7598 4.16992 12.7402 2.8457 11.5332C1.5332 10.3145 0.876953 8.81445 0.876953 7.0332C0.876953 5.01758 1.67969 3.35352 3.28516 2.04102C4.90234 0.716797 7 0.0546875 9.57812 0.0546875C11.3359 0.0546875 12.9004 0.394531 14.2715 1.07422C15.6543 1.75391 16.7207 2.69141 17.4707 3.88672C18.2324 5.08203 18.6133 6.38867 18.6133 7.80664H15.2207C15.2207 6.25977 14.7285 5.04688 13.7441 4.16797C12.7598 3.27734 11.3711 2.83203 9.57812 2.83203C7.91406 2.83203 6.61328 3.20117 5.67578 3.93945C4.75 4.66602 4.28711 5.67969 4.28711 6.98047C4.28711 8.02344 4.72656 8.9082 5.60547 9.63477C6.49609 10.3496 8.00195 11.0059 10.123 11.6035C12.2559 12.2012 13.9199 12.8633 15.1152 13.5898C16.3223 14.3047 17.2129 15.1426 17.7871 16.1035C18.373 17.0645 18.666 18.1953 18.666 19.4961C18.666 21.5703 17.8574 23.2344 16.2402 24.4883C14.623 25.7305 12.4609 26.3516 9.75391 26.3516C7.99609 26.3516 6.35547 26.0176 4.83203 25.3496C3.30859 24.6699 2.13086 23.7441 1.29883 22.5723C0.478516 21.4004 0.0683594 20.0703 0.0683594 18.582H3.46094C3.46094 20.1289 4.0293 21.3535 5.16602 22.2559C6.31445 23.1465 7.84375 23.5918 9.75391 23.5918C11.5352 23.5918 12.9004 23.2285 13.8496 22.502C14.7988 21.7754 15.2734 20.7852 15.2734 19.5312C15.2734 18.2773 14.834 17.3105 13.9551 16.6309C13.0762 15.9395 11.4824 15.2598 9.17383 14.5918ZM42.6777 26H39.2852V14.1699H26.3828V26H23.0078V0.40625H26.3828V11.4102H39.2852V0.40625H42.6777V26ZM63.1211 19.3203H52.3984L49.9902 26H46.5098L56.2832 0.40625H59.2363L69.0273 26H65.5645L63.1211 19.3203ZM53.418 16.543H62.1191L57.7598 4.57227L53.418 16.543ZM81.8594 15.6465H75.8477V26H72.4551V0.40625H80.9277C83.8105 0.40625 86.0254 1.0625 87.5723 2.375C89.1309 3.6875 89.9102 5.59766 89.9102 8.10547C89.9102 9.69922 89.4766 11.0879 88.6094 12.2715C87.7539 13.4551 86.5586 14.3398 85.0234 14.9258L91.0352 25.7891V26H87.4141L81.8594 15.6465ZM75.8477 12.8867H81.0332C82.709 12.8867 84.0391 12.4531 85.0234 11.5859C86.0195 10.7188 86.5176 9.55859 86.5176 8.10547C86.5176 6.52344 86.043 5.31055 85.0938 4.4668C84.1562 3.62305 82.7969 3.19531 81.0156 3.18359H75.8477V12.8867ZM109.123 14.1699H98.0312V23.2402H110.916V26H94.6562V0.40625H110.74V3.18359H98.0312V11.4102H109.123V14.1699ZM126.35 26C126.162 25.625 126.01 24.957 125.893 23.9961C124.381 25.5664 122.576 26.3516 120.479 26.3516C118.604 26.3516 117.062 25.8242 115.855 24.7695C114.66 23.7031 114.062 22.3555 114.062 20.7266C114.062 18.7461 114.812 17.2109 116.312 16.1211C117.824 15.0195 119.945 14.4688 122.676 14.4688H125.84V12.9746C125.84 11.8379 125.5 10.9355 124.82 10.2676C124.141 9.58789 123.139 9.24805 121.814 9.24805C120.654 9.24805 119.682 9.54102 118.896 10.127C118.111 10.7129 117.719 11.4219 117.719 12.2539H114.449C114.449 11.3047 114.783 10.3906 115.451 9.51172C116.131 8.62109 117.045 7.91797 118.193 7.40234C119.354 6.88672 120.625 6.62891 122.008 6.62891C124.199 6.62891 125.916 7.17969 127.158 8.28125C128.4 9.37109 129.045 10.877 129.092 12.7988V21.5527C129.092 23.2988 129.314 24.6875 129.76 25.7188V26H126.35ZM120.953 23.5215C121.973 23.5215 122.939 23.2578 123.854 22.7305C124.768 22.2031 125.43 21.5176 125.84 20.6738V16.7715H123.291C119.307 16.7715 117.314 17.9375 117.314 20.2695C117.314 21.2891 117.654 22.0859 118.334 22.6602C119.014 23.2344 119.887 23.5215 120.953 23.5215ZM139.059 0.40625L147.426 21.2891L155.793 0.40625H160.17V26H156.795V16.0332L157.111 5.27539L148.709 26H146.125L137.74 5.32812L138.074 16.0332V26H134.699V0.40625H139.059ZM184.146 0.40625V17.8086C184.135 20.2227 183.373 22.1973 181.861 23.7324C180.361 25.2676 178.322 26.1289 175.744 26.3164L174.848 26.3516C172.047 26.3516 169.814 25.5957 168.15 24.084C166.486 22.5723 165.643 20.4922 165.619 17.8438V0.40625H168.959V17.7383C168.959 19.5898 169.469 21.0312 170.488 22.0625C171.508 23.082 172.961 23.5918 174.848 23.5918C176.758 23.5918 178.217 23.082 179.225 22.0625C180.244 21.043 180.754 19.6074 180.754 17.7559V0.40625H184.146ZM197.014 14.5918C194.119 13.7598 192.01 12.7402 190.686 11.5332C189.373 10.3145 188.717 8.81445 188.717 7.0332C188.717 5.01758 189.52 3.35352 191.125 2.04102C192.742 0.716797 194.84 0.0546875 197.418 0.0546875C199.176 0.0546875 200.74 0.394531 202.111 1.07422C203.494 1.75391 204.561 2.69141 205.311 3.88672C206.072 5.08203 206.453 6.38867 206.453 7.80664H203.061C203.061 6.25977 202.568 5.04688 201.584 4.16797C200.6 3.27734 199.211 2.83203 197.418 2.83203C195.754 2.83203 194.453 3.20117 193.516 3.93945C192.59 4.66602 192.127 5.67969 192.127 6.98047C192.127 8.02344 192.566 8.9082 193.445 9.63477C194.336 10.3496 195.842 11.0059 197.963 11.6035C200.096 12.2012 201.76 12.8633 202.955 13.5898C204.162 14.3047 205.053 15.1426 205.627 16.1035C206.213 17.0645 206.506 18.1953 206.506 19.4961C206.506 21.5703 205.697 23.2344 204.08 24.4883C202.463 25.7305 200.301 26.3516 197.594 26.3516C195.836 26.3516 194.195 26.0176 192.672 25.3496C191.148 24.6699 189.971 23.7441 189.139 22.5723C188.318 21.4004 187.908 20.0703 187.908 18.582H191.301C191.301 20.1289 191.869 21.3535 193.006 22.2559C194.154 23.1465 195.684 23.5918 197.594 23.5918C199.375 23.5918 200.74 23.2285 201.689 22.502C202.639 21.7754 203.113 20.7852 203.113 19.5312C203.113 18.2773 202.674 17.3105 201.795 16.6309C200.916 15.9395 199.322 15.2598 197.014 14.5918ZM225.314 14.1699H214.223V23.2402H227.107V26H210.848V0.40625H226.932V3.18359H214.223V11.4102H225.314V14.1699Z" fill="#E1355F"/>
</svg>
