<svg width="371" height="46" viewBox="0 0 371 46" fill="none" xmlns="http://www.w3.org/2000/svg">
<path d="M0.0727539 37.1152L3.68604 35.8457C5.86702 39.6217 9.25244 41.5098 13.8423 41.5098C16.3813 41.5098 18.4484 40.8913 20.0435 39.6543C21.6385 38.4173 22.436 36.7246 22.436 34.5762C22.436 33.502 22.2082 32.5579 21.7524 31.7441C21.2967 30.8978 20.5643 30.1654 19.5552 29.5469C18.5786 28.9284 17.6672 28.4401 16.8208 28.082C15.9744 27.724 14.8188 27.3008 13.354 26.8125C12.1821 26.4219 11.3521 26.1452 10.8638 25.9824C10.3755 25.8197 9.59424 25.5267 8.52002 25.1035C7.47835 24.6803 6.6971 24.306 6.17627 23.9805C5.68799 23.6549 5.0695 23.2155 4.3208 22.6621C3.5721 22.0762 3.01872 21.4902 2.66064 20.9043C2.33512 20.3184 2.02588 19.6185 1.73291 18.8047C1.47249 17.9583 1.34229 17.0632 1.34229 16.1191C1.34229 13.222 2.44906 10.9108 4.6626 9.18555C6.87614 7.42773 9.83838 6.54883 13.5493 6.54883C16.3813 6.54883 18.839 7.19987 20.9224 8.50195C23.0382 9.80404 24.5519 11.4316 25.4634 13.3848L22.1431 14.5566C20.2225 11.4316 17.3254 9.86914 13.4517 9.86914C10.9126 9.86914 8.92692 10.4388 7.49463 11.5781C6.06234 12.7174 5.34619 14.2311 5.34619 16.1191C5.34619 16.9655 5.5415 17.763 5.93213 18.5117C6.32275 19.2279 6.74593 19.8138 7.20166 20.2695C7.68994 20.6927 8.45492 21.1647 9.49658 21.6855C10.5708 22.1738 11.4009 22.5319 11.9868 22.7598C12.6053 22.9551 13.5981 23.2806 14.9653 23.7363C15.2909 23.834 15.535 23.9154 15.6978 23.9805C17.2928 24.5013 18.6274 25.0059 19.7017 25.4941C20.7759 25.9824 21.8826 26.6335 23.022 27.4473C24.1613 28.2611 25.0076 29.2539 25.561 30.4258C26.147 31.5651 26.4399 32.8997 26.4399 34.4297C26.4399 37.7174 25.2843 40.2891 22.9731 42.1445C20.6945 43.9674 17.6183 44.8789 13.7446 44.8789C10.4243 44.8789 7.60856 44.179 5.29736 42.7793C2.98617 41.3796 1.24463 39.4915 0.0727539 37.1152ZM50.7378 44V7.42773H54.644V44H50.7378ZM113.98 1.15C114.714 1.15 115.414 1.3 116.08 1.6C116.747 1.86666 117.314 2.25 117.78 2.75C118.28 3.21666 118.664 3.78333 118.93 4.45C119.23 5.11667 119.38 5.81667 119.38 6.55C119.38 7.31667 119.23 8.03333 118.93 8.7C118.664 9.33333 118.28 9.9 117.78 10.4C117.314 10.8667 116.747 11.25 116.08 11.55C115.414 11.8167 114.714 11.95 113.98 11.95C113.214 11.95 112.497 11.8167 111.83 11.55C111.197 11.25 110.63 10.8667 110.13 10.4C109.664 9.9 109.28 9.33333 108.98 8.7C108.714 8.03333 108.58 7.31667 108.58 6.55C108.58 5.81667 108.714 5.11667 108.98 4.45C109.28 3.78333 109.664 3.21666 110.13 2.75C110.63 2.25 111.197 1.86666 111.83 1.6C112.497 1.3 113.214 1.15 113.98 1.15ZM113.98 3.3C113.08 3.3 112.314 3.61667 111.68 4.25C111.047 4.88333 110.73 5.65 110.73 6.55C110.73 7.45 111.047 8.21666 111.68 8.85C112.314 9.48333 113.08 9.8 113.98 9.8C114.88 9.8 115.647 9.48333 116.28 8.85C116.914 8.21666 117.23 7.45 117.23 6.55C117.23 5.65 116.914 4.88333 116.28 4.25C115.647 3.61667 114.88 3.3 113.98 3.3ZM90.3304 8.6C90.1637 10.9667 89.947 13.15 89.6804 15.15C89.4137 17.1167 89.097 18.9833 88.7304 20.75C88.3637 22.4833 87.947 24.1333 87.4804 25.7C87.0137 27.2667 86.4804 28.8 85.8804 30.3C84.6804 33.2667 83.247 35.9 81.5804 38.2C79.947 40.5 78.3804 42.4 76.8804 43.9L74.6804 41.65C75.3804 40.8167 76.0637 39.9 76.7304 38.9C77.4304 37.8667 78.097 36.8 78.7304 35.7C79.3637 34.6 79.947 33.4833 80.4804 32.35C81.0137 31.1833 81.4804 30.05 81.8804 28.95C82.947 26.0167 83.7304 22.8 84.2304 19.3C84.7637 15.8 85.1137 12.0333 85.2804 8L90.3304 8.6ZM104.38 7.35C104.947 8.38333 105.547 9.56666 106.18 10.9C106.814 12.2 107.447 13.5667 108.08 15C108.714 16.4 109.314 17.8333 109.88 19.3C110.447 20.7333 110.964 22.1 111.43 23.4C112.397 26.2333 113.28 29.1667 114.08 32.2C114.914 35.2 115.647 38.4167 116.28 41.85L111.13 44.6C110.73 40.9667 110.214 37.6333 109.58 34.6C108.98 31.5667 108.28 28.6167 107.48 25.75C106.68 22.8167 105.78 19.8833 104.78 16.95C103.814 14.0167 102.68 11.2667 101.38 8.7L104.38 7.35ZM165.38 23.25V26.75H128.38V23.25H165.38ZM189.33 44.8H184.68V5.2H189.33V18.35C191.197 18.5833 193.197 18.9 195.33 19.3C197.464 19.7 199.664 20.2167 201.93 20.85C204.23 21.45 206.564 22.1667 208.93 23C211.33 23.8333 213.714 24.8 216.08 25.9L213.93 31.1C212.43 30.0667 210.697 29.05 208.73 28.05C206.797 27.05 204.747 26.1333 202.58 25.3C200.414 24.4667 198.197 23.7333 195.93 23.1C193.664 22.4667 191.464 21.9667 189.33 21.6V44.8ZM266.68 15.6V18.75H250.63C250.564 20.4833 250.48 22.05 250.38 23.45C250.28 24.85 250.147 26.1333 249.98 27.3C249.814 28.4333 249.597 29.4667 249.33 30.4C249.064 31.3333 248.764 32.2167 248.43 33.05C247.03 36.3167 244.83 38.9333 241.83 40.9C238.864 42.8667 235.197 44.2 230.83 44.9L230.13 41.85C231.664 41.5167 233.147 41.0667 234.58 40.5C236.014 39.9333 237.314 39.25 238.48 38.45C239.68 37.6167 240.73 36.6667 241.63 35.6C242.53 34.5333 243.247 33.3167 243.78 31.95C244.114 31.1167 244.397 30.2833 244.63 29.45C244.864 28.6167 245.064 27.6833 245.23 26.65C245.397 25.6167 245.514 24.4667 245.58 23.2C245.68 21.9333 245.764 20.45 245.83 18.75H227.08V15.6H245.93C245.93 14.3667 245.93 12.8833 245.93 11.15C245.964 9.38333 245.98 7.4 245.98 5.2H250.78C250.78 7.2 250.78 9.06667 250.78 10.8C250.78 12.5 250.764 14.1 250.73 15.6H266.68ZM315.38 23.25V26.75H278.38V23.25H315.38ZM362.08 9.65C360.914 13.05 359.53 16.2333 357.93 19.2C356.364 22.1333 354.564 24.8833 352.53 27.45C355.53 29.45 358.397 31.6333 361.13 34C363.897 36.3333 366.33 38.7167 368.43 41.15L364.83 44.8C362.83 42.0333 360.68 39.4333 358.38 37C356.114 34.5333 353.53 32.1167 350.63 29.75C347.597 33.1833 344.13 36.2 340.23 38.8C336.33 41.3667 331.947 43.6 327.08 45.5L325.93 42.6C329.93 40.9 333.514 38.9333 336.68 36.7C339.88 34.4333 342.714 31.9833 345.18 29.35C347.647 26.7167 349.747 23.9333 351.48 21C353.247 18.0333 354.697 14.9833 355.83 11.85H329.88V8.35H361.33C360.83 7.38333 360.247 6.43333 359.58 5.5C358.914 4.53333 358.214 3.7 357.48 3L359.68 1.65C360.68 2.31666 361.647 3.2 362.58 4.3C363.547 5.4 364.33 6.53333 364.93 7.7L362.08 9.65ZM365.48 0.0499966C366.48 0.683332 367.43 1.51667 368.33 2.55C369.264 3.58333 370.064 4.73333 370.73 6L367.73 8.05C367.097 6.65 366.414 5.43333 365.68 4.4C364.947 3.33333 364.13 2.35 363.23 1.45L365.48 0.0499966Z" fill="#255DEC"/>
<path d="M32.1597 39.0166C32.1597 40.1592 32.5288 41.0645 33.2671 41.7324C34.0229 42.4004 34.9897 42.7344 36.1675 42.7344C37.7671 42.7344 39.2173 41.9521 40.5181 40.3877L35.6401 33.7695C34.603 34.4902 33.7593 35.2637 33.1089 36.0898C32.4761 36.916 32.1597 37.8916 32.1597 39.0166ZM30.0503 39.043C30.0503 36.4414 31.5532 34.1914 34.5591 32.293C34.5063 32.2051 34.4185 32.082 34.2954 31.9238C33.856 31.3086 33.5396 30.8516 33.3462 30.5527C33.1704 30.2539 33.0034 29.8848 32.8452 29.4453C32.687 29.0059 32.6079 28.54 32.6079 28.0479C32.6079 26.9229 33.0298 25.9648 33.8735 25.1738C34.7349 24.3828 35.9302 23.9873 37.4595 23.9873C39.7974 23.9873 41.5112 25.0947 42.6011 27.3096L40.9927 28.0215C40.6763 27.4062 40.2017 26.8701 39.5688 26.4131C38.9536 25.9385 38.2944 25.7012 37.5913 25.7012C36.6948 25.7012 35.9917 25.9385 35.4819 26.4131C34.9722 26.8701 34.7173 27.4414 34.7173 28.127C34.7173 28.8477 35.2358 29.9814 36.2729 31.5283C37.3101 33.0752 39.0767 35.4746 41.5728 38.7266C42.1177 37.6367 42.522 36.3535 42.7856 34.877L44.6841 35.2197C44.3853 37.1182 43.7876 38.8408 42.8911 40.3877L45.6597 44H43.2339L41.6782 41.9697C40.1313 43.6396 38.2681 44.4746 36.0884 44.4746C34.1724 44.4746 32.687 43.9561 31.6323 42.9189C30.5776 41.8818 30.0503 40.5898 30.0503 39.043Z" fill="#5B89FE"/>
</svg>
