<svg width="286" height="45" viewBox="0 0 286 45" fill="none" xmlns="http://www.w3.org/2000/svg">
<path d="M0.239258 36.1152L3.85254 34.8457C6.03353 38.6217 9.41895 40.5098 14.0088 40.5098C16.5479 40.5098 18.6149 39.8913 20.21 38.6543C21.805 37.4173 22.6025 35.7246 22.6025 33.5762C22.6025 32.502 22.3747 31.5579 21.9189 30.7441C21.4632 29.8978 20.7308 29.1654 19.7217 28.5469C18.7451 27.9284 17.8337 27.4401 16.9873 27.082C16.141 26.724 14.9854 26.3008 13.5205 25.8125C12.3486 25.4219 11.5186 25.1452 11.0303 24.9824C10.542 24.8197 9.76074 24.5267 8.68652 24.1035C7.64486 23.6803 6.86361 23.306 6.34277 22.9805C5.85449 22.6549 5.236 22.2155 4.4873 21.6621C3.73861 21.0762 3.18522 20.4902 2.82715 19.9043C2.50163 19.3184 2.19238 18.6185 1.89941 17.8047C1.639 16.9583 1.50879 16.0632 1.50879 15.1191C1.50879 12.222 2.61556 9.91081 4.8291 8.18555C7.04264 6.42773 10.0049 5.54883 13.7158 5.54883C16.5479 5.54883 19.0055 6.19987 21.0889 7.50195C23.2048 8.80404 24.7184 10.4316 25.6299 12.3848L22.3096 13.5566C20.389 10.4316 17.4919 8.86914 13.6182 8.86914C11.0791 8.86914 9.09342 9.4388 7.66113 10.5781C6.22884 11.7174 5.5127 13.2311 5.5127 15.1191C5.5127 15.9655 5.70801 16.763 6.09863 17.5117C6.48926 18.2279 6.91243 18.8138 7.36816 19.2695C7.85645 19.6927 8.62142 20.1647 9.66309 20.6855C10.7373 21.1738 11.5674 21.5319 12.1533 21.7598C12.7718 21.9551 13.7646 22.2806 15.1318 22.7363C15.4574 22.834 15.7015 22.9154 15.8643 22.9805C17.4593 23.5013 18.7939 24.0059 19.8682 24.4941C20.9424 24.9824 22.0492 25.6335 23.1885 26.4473C24.3278 27.2611 25.1742 28.2539 25.7275 29.4258C26.3135 30.5651 26.6064 31.8997 26.6064 33.4297C26.6064 36.7174 25.4508 39.2891 23.1396 41.1445C20.861 42.9674 17.7848 43.8789 13.9111 43.8789C10.5908 43.8789 7.77507 43.179 5.46387 41.7793C3.15267 40.3796 1.41113 38.4915 0.239258 36.1152ZM35.4932 33.7715C35.4932 35.8874 36.1768 37.5638 37.5439 38.8008C38.9437 40.0378 40.734 40.6562 42.915 40.6562C45.8773 40.6562 48.5628 39.2077 50.9717 36.3105L41.9385 24.0547C40.0179 25.3893 38.4554 26.8216 37.251 28.3516C36.0791 29.8815 35.4932 31.6882 35.4932 33.7715ZM31.5869 33.8203C31.5869 29.0026 34.3701 24.8359 39.9365 21.3203C39.8389 21.1576 39.6761 20.9297 39.4482 20.6367C38.6344 19.4974 38.0485 18.651 37.6904 18.0977C37.3649 17.5443 37.0557 16.8607 36.7627 16.0469C36.4697 15.2331 36.3232 14.3704 36.3232 13.459C36.3232 11.3757 37.1045 9.60156 38.667 8.13672C40.262 6.67188 42.4756 5.93945 45.3076 5.93945C49.637 5.93945 52.8109 7.99023 54.8291 12.0918L51.8506 13.4102C51.2646 12.2708 50.3857 11.278 49.2139 10.4316C48.0745 9.55273 46.8538 9.11328 45.5518 9.11328C43.8916 9.11328 42.5895 9.55273 41.6455 10.4316C40.7015 11.278 40.2295 12.3359 40.2295 13.6055C40.2295 14.9401 41.1898 17.0397 43.1104 19.9043C45.0309 22.7689 48.3024 27.2122 52.9248 33.2344C53.9339 31.2161 54.6826 28.8398 55.1709 26.1055L58.6865 26.7402C58.1331 30.2559 57.0264 33.446 55.3662 36.3105L60.4932 43H56.001L53.1201 39.2402C50.2555 42.3327 46.805 43.8789 42.7686 43.8789C39.2204 43.8789 36.4697 42.9186 34.5166 40.998C32.5635 39.0775 31.5869 36.6849 31.5869 33.8203ZM65.5713 43V6.42773H69.4775V43H65.5713ZM92.5732 24.8848C95.6982 22.2806 98.1234 19.5137 99.8486 16.584C101.574 13.6543 103.234 9.7806 104.829 4.96289L108.149 6.13477C107.368 8.64128 106.603 10.7572 105.854 12.4824H122.261L124.36 14.875C123.026 21.8411 120.389 27.7331 116.45 32.5508C112.511 37.3685 107.433 41.4701 101.216 44.8555L99.0186 41.9258C110.705 35.513 117.866 26.8216 120.503 15.8516H104.438C102.29 19.9857 99.2952 23.7454 95.4541 27.1309L92.5732 24.8848ZM125.435 2.66797L127.485 0.714844C130.317 3.09115 132.482 5.28841 133.979 7.30664L131.88 9.21094C129.992 6.86719 127.843 4.6862 125.435 2.66797ZM121.089 5.93945L123.14 3.98633C125.972 6.36263 128.136 8.5599 129.634 10.5781L127.534 12.4824C125.646 10.1387 123.498 7.95768 121.089 5.93945ZM142.231 40.1191C147.212 34.9434 149.702 28.3678 149.702 20.3926V11.6523H153.413V20.3926C153.413 24.722 152.778 28.6771 151.509 32.2578C150.239 35.8385 148.14 39.1914 145.21 42.3164L142.231 40.1191ZM161.519 40.8027V9.65039H165.229V38.0195C171.089 34.6992 176.232 30.3698 180.659 25.0312L182.954 27.8145C180.61 30.7441 177.729 33.5599 174.312 36.2617C170.894 38.9635 167.394 41.1445 163.813 42.8047L161.519 40.8027ZM194.526 21.418V18.0977H228.95V21.418H194.526ZM242.671 14.2402V10.8223H273.091L275.239 13.3613C274.914 17.2676 273.921 20.9297 272.261 24.3477C270.601 27.7656 268.517 30.6953 266.011 33.1367C263.504 35.5456 260.786 37.5801 257.856 39.2402C254.959 40.9004 251.948 42.1536 248.823 43L246.919 39.875C250.272 38.8333 253.283 37.5638 255.952 36.0664C258.654 34.569 260.868 32.9902 262.593 31.3301C264.351 29.6699 265.848 27.847 267.085 25.8613C268.322 23.8757 269.233 21.9551 269.819 20.0996C270.438 18.2116 270.877 16.2585 271.138 14.2402H242.671ZM277.534 8.77148C277.534 9.52018 277.778 10.1387 278.267 10.627C278.755 11.1152 279.373 11.3594 280.122 11.3594C280.838 11.3594 281.44 11.1315 281.929 10.6758C282.45 10.1875 282.71 9.55273 282.71 8.77148C282.71 7.99023 282.466 7.35547 281.978 6.86719C281.522 6.34635 280.903 6.08594 280.122 6.08594C279.373 6.08594 278.755 6.33008 278.267 6.81836C277.778 7.30664 277.534 7.95768 277.534 8.77148ZM275.239 8.77148C275.239 7.4043 275.695 6.2487 276.606 5.30469C277.518 4.36068 278.69 3.88867 280.122 3.88867C281.522 3.88867 282.677 4.36068 283.589 5.30469C284.533 6.2487 285.005 7.4043 285.005 8.77148C285.005 10.1387 284.533 11.278 283.589 12.1895C282.677 13.1009 281.522 13.5566 280.122 13.5566C278.722 13.5566 277.55 13.0846 276.606 12.1406C275.695 11.1966 275.239 10.0736 275.239 8.77148Z" fill="#02089F"/>
</svg>
