<svg width="272" height="47" viewBox="0 0 272 47" fill="none" xmlns="http://www.w3.org/2000/svg">
<path d="M0.0727539 37.1152L3.68604 35.8457C5.86702 39.6217 9.25244 41.5098 13.8423 41.5098C16.3813 41.5098 18.4484 40.8913 20.0435 39.6543C21.6385 38.4173 22.436 36.7246 22.436 34.5762C22.436 33.502 22.2082 32.5579 21.7524 31.7441C21.2967 30.8978 20.5643 30.1654 19.5552 29.5469C18.5786 28.9284 17.6672 28.4401 16.8208 28.082C15.9744 27.724 14.8188 27.3008 13.354 26.8125C12.1821 26.4219 11.3521 26.1452 10.8638 25.9824C10.3755 25.8197 9.59424 25.5267 8.52002 25.1035C7.47835 24.6803 6.6971 24.306 6.17627 23.9805C5.68799 23.6549 5.0695 23.2155 4.3208 22.6621C3.5721 22.0762 3.01872 21.4902 2.66064 20.9043C2.33512 20.3184 2.02588 19.6185 1.73291 18.8047C1.47249 17.9583 1.34229 17.0632 1.34229 16.1191C1.34229 13.222 2.44906 10.9108 4.6626 9.18555C6.87614 7.42773 9.83838 6.54883 13.5493 6.54883C16.3813 6.54883 18.839 7.19987 20.9224 8.50195C23.0382 9.80404 24.5519 11.4316 25.4634 13.3848L22.1431 14.5566C20.2225 11.4316 17.3254 9.86914 13.4517 9.86914C10.9126 9.86914 8.92692 10.4388 7.49463 11.5781C6.06234 12.7174 5.34619 14.2311 5.34619 16.1191C5.34619 16.9655 5.5415 17.763 5.93213 18.5117C6.32275 19.2279 6.74593 19.8138 7.20166 20.2695C7.68994 20.6927 8.45492 21.1647 9.49658 21.6855C10.5708 22.1738 11.4009 22.5319 11.9868 22.7598C12.6053 22.9551 13.5981 23.2806 14.9653 23.7363C15.2909 23.834 15.535 23.9154 15.6978 23.9805C17.2928 24.5013 18.6274 25.0059 19.7017 25.4941C20.7759 25.9824 21.8826 26.6335 23.022 27.4473C24.1613 28.2611 25.0076 29.2539 25.561 30.4258C26.147 31.5651 26.4399 32.8997 26.4399 34.4297C26.4399 37.7174 25.2843 40.2891 22.9731 42.1445C20.6945 43.9674 17.6183 44.8789 13.7446 44.8789C10.4243 44.8789 7.60856 44.179 5.29736 42.7793C2.98617 41.3796 1.24463 39.4915 0.0727539 37.1152ZM50.7378 44V7.42773H54.644V44H50.7378ZM110.33 1.95C111.33 2.61667 112.314 3.51666 113.28 4.65C114.247 5.75 115.064 6.95 115.73 8.25L112.78 10.25C112.214 8.95 111.514 7.68333 110.68 6.45C109.88 5.21666 109.03 4.16666 108.13 3.3L110.33 1.95ZM116.13 0.349999C117.13 0.983332 118.097 1.83333 119.03 2.9C119.964 3.93333 120.797 5.15 121.53 6.55L118.53 8.6C117.83 7.06667 117.097 5.76667 116.33 4.7C115.597 3.63333 114.78 2.65 113.88 1.75L116.13 0.349999ZM76.6804 23.5C78.247 22.8 79.7304 21.9167 81.1304 20.85C82.5304 19.75 83.797 18.45 84.9304 16.95C86.097 15.45 87.097 13.7333 87.9304 11.8C88.797 9.86667 89.4804 7.7 89.9804 5.3L95.0304 5.9C94.7637 6.96667 94.4637 7.91667 94.1304 8.75C93.8304 9.58333 93.547 10.3333 93.2804 11H115.43C114.797 16.3 113.48 21.0167 111.48 25.15C109.514 29.2833 106.93 32.8 103.73 35.7C100.53 38.5667 96.747 40.8167 92.3804 42.45C88.0137 44.05 83.1304 44.9833 77.7304 45.25V42.1C82.9304 41.3667 87.3637 40.2167 91.0304 38.65C94.697 37.05 97.7804 35.0667 100.28 32.7C102.78 30.3 104.797 27.55 106.33 24.45C107.864 21.35 109.08 17.9167 109.98 14.15H91.8804C90.6137 16.9833 88.697 19.5 86.1304 21.7C83.5637 23.8667 80.5304 25.4833 77.0304 26.55L76.6804 23.5ZM139.43 7.45V11.45C139.43 13.6833 139.397 15.7333 139.33 17.6C139.297 19.4333 139.197 21.15 139.03 22.75C138.864 24.35 138.614 25.8833 138.28 27.35C137.947 28.7833 137.514 30.2333 136.98 31.7C136.38 33.2667 135.73 34.7 135.03 36C134.33 37.2667 133.564 38.4333 132.73 39.5C131.93 40.5333 131.064 41.4833 130.13 42.35C129.23 43.2167 128.297 44.0167 127.33 44.75L125.28 42.4C125.98 41.7667 126.697 41.05 127.43 40.25C128.197 39.4167 128.93 38.4833 129.63 37.45C130.33 36.4167 130.98 35.2833 131.58 34.05C132.18 32.8167 132.697 31.4667 133.13 30C133.497 28.8 133.78 27.55 133.98 26.25C134.214 24.95 134.38 23.55 134.48 22.05C134.614 20.55 134.697 18.9167 134.73 17.15C134.764 15.3833 134.78 13.4167 134.78 11.25V7.25L139.43 7.45ZM152.03 5.65V38.2C153.297 37.5 154.564 36.6833 155.83 35.75C157.13 34.8167 158.364 33.7167 159.53 32.45C160.697 31.1833 161.78 29.7333 162.78 28.1C163.814 26.4333 164.68 24.55 165.38 22.45L168.28 23.7C167.58 26.2333 166.597 28.6667 165.33 31C164.064 33.3 162.547 35.4 160.78 37.3C159.047 39.1667 157.047 40.7667 154.78 42.1C152.547 43.4333 150.097 44.3833 147.43 44.95V5.65H152.03ZM215.38 23.25V26.75H178.38V23.25H215.38ZM261.03 8.95C260.564 8.11667 260.33 7.21667 260.33 6.25C260.33 5.51667 260.464 4.81667 260.73 4.15C261.03 3.48333 261.414 2.91667 261.88 2.45C262.38 1.95 262.947 1.56667 263.58 1.3C264.247 0.999998 264.964 0.849998 265.73 0.849998C266.464 0.849998 267.164 0.999998 267.83 1.3C268.497 1.56667 269.064 1.95 269.53 2.45C270.03 2.91667 270.414 3.48333 270.68 4.15C270.98 4.81667 271.13 5.51667 271.13 6.25C271.13 7.01666 270.98 7.73333 270.68 8.4C270.414 9.03333 270.03 9.6 269.53 10.1C269.064 10.5667 268.497 10.95 267.83 11.25C267.164 11.5167 266.464 11.65 265.73 11.65C265.464 11.65 265.197 11.6333 264.93 11.6C264.697 11.5667 264.464 11.5167 264.23 11.45C263.997 13.55 263.664 15.6333 263.23 17.7C262.797 19.7667 262.247 21.7667 261.58 23.7C260.914 25.6333 260.114 27.4833 259.18 29.25C258.247 30.9833 257.147 32.5667 255.88 34C253.38 36.8667 250.23 39.3333 246.43 41.4C242.664 43.4667 238.064 45.0667 232.63 46.2L231.73 43.2C236.43 41.9333 240.414 40.3667 243.68 38.5C246.98 36.6 249.73 34.3167 251.93 31.65C253.93 29.2167 255.497 26.3833 256.63 23.15C257.797 19.8833 258.63 16.2 259.13 12.1H226.53V8.95H261.03ZM265.73 3C264.83 3 264.064 3.31666 263.43 3.95C262.797 4.58333 262.48 5.35 262.48 6.25C262.48 7.15 262.797 7.91666 263.43 8.55C264.064 9.18333 264.83 9.5 265.73 9.5C266.63 9.5 267.397 9.18333 268.03 8.55C268.664 7.91666 268.98 7.15 268.98 6.25C268.98 5.35 268.664 4.58333 268.03 3.95C267.397 3.31666 266.63 3 265.73 3Z" fill="#255DEC"/>
<path d="M32.1597 39.0166C32.1597 40.1592 32.5288 41.0645 33.2671 41.7324C34.0229 42.4004 34.9897 42.7344 36.1675 42.7344C37.7671 42.7344 39.2173 41.9521 40.5181 40.3877L35.6401 33.7695C34.603 34.4902 33.7593 35.2637 33.1089 36.0898C32.4761 36.916 32.1597 37.8916 32.1597 39.0166ZM30.0503 39.043C30.0503 36.4414 31.5532 34.1914 34.5591 32.293C34.5063 32.2051 34.4185 32.082 34.2954 31.9238C33.856 31.3086 33.5396 30.8516 33.3462 30.5527C33.1704 30.2539 33.0034 29.8848 32.8452 29.4453C32.687 29.0059 32.6079 28.54 32.6079 28.0479C32.6079 26.9229 33.0298 25.9648 33.8735 25.1738C34.7349 24.3828 35.9302 23.9873 37.4595 23.9873C39.7974 23.9873 41.5112 25.0947 42.6011 27.3096L40.9927 28.0215C40.6763 27.4062 40.2017 26.8701 39.5688 26.4131C38.9536 25.9385 38.2944 25.7012 37.5913 25.7012C36.6948 25.7012 35.9917 25.9385 35.4819 26.4131C34.9722 26.8701 34.7173 27.4414 34.7173 28.127C34.7173 28.8477 35.2358 29.9814 36.2729 31.5283C37.3101 33.0752 39.0767 35.4746 41.5728 38.7266C42.1177 37.6367 42.522 36.3535 42.7856 34.877L44.6841 35.2197C44.3853 37.1182 43.7876 38.8408 42.8911 40.3877L45.6597 44H43.2339L41.6782 41.9697C40.1313 43.6396 38.2681 44.4746 36.0884 44.4746C34.1724 44.4746 32.687 43.9561 31.6323 42.9189C30.5776 41.8818 30.0503 40.5898 30.0503 39.043Z" fill="#5B89FE"/>
</svg>
